<svg version="1.2" xmlns="http://www.w3.org/2000/svg" viewBox="0 0 1280 720" width="1280" height="720">
	<title>template</title>
	<style>
		.s0 { fill: #fefefe } 
		.s1 { fill: #181818 } 
		.s2 { fill: #1a1a1a } 
	</style>
	<g id="Layer 2">
		<path id="Path 0" class="s0" d="m0 360v360h1280v-720h-1280z"/>
		<path id="Path 1" class="s1" d="m470 320v44h7v-88h-7zm27 0v44h7v-88h-7zm359 0v44h6v-88h-6zm69-29.8v14.3c-17.4 0-24.4 0.6-26.8 1.3-2.3 0.7-6.1 2.7-8.4 4.5-2.8 2-5.4 5.4-7.3 9.2-2.7 5.5-3 6.9-3 16 0 8.5 0.4 10.8 2.5 15.4 1.4 3 4 6.7 5.8 8.3 1.7 1.5 5.6 3.5 8.5 4.3 2.8 0.8 6.4 1.5 8 1.5 1.5 0 4.8-0.4 7.5-1 2.6-0.5 6.6-2.3 9-4l4.2-3c0.9 6.4 1.4 7 3.5 7h2.5v-88h-6zm-604 33.3v40.5h7v-38h51v38h7v-81l-6.5 0.5-0.5 36.5h-51v-37h-7zm295-39.8c0 0.4 5.8 18.5 12.8 40.3l12.8 39.5 9.4 0.5c18.1-55.5 23.6-71.9 23.9-72.3 0.3-0.4 6 15.7 12.6 35.7l12 36.5 9 0.1c19.8-60.9 25.5-79.1 25.5-79.8 0-0.7-1.3-1.3-3-1.3h-3c-11.7 36.9-17 53.3-19.3 60.3-2.3 7-4.4 12.8-4.7 12.8-0.3 0-5.9-16.3-12.5-36.3l-12-36.3-8.5-0.5c-18 55.5-23.6 72-24 72.5-0.5 0.6-4.3-9.6-9-24.5-4.5-14-9.8-30.5-11.8-36.7l-3.7-11.3c-5 0-6.5 0.4-6.5 0.8zm336.4 28c0.3 15.8 0.9 29.8 1.1 31 0.3 1.3 1.2 2.3 2.3 2.3 1.4 0 1.8-1.4 2.4-8.3 0.5-4.5 0.8-18.5 0.8-31v-22.8h-7.3zm-529.9-6.8c-1.6 0.4-4.3 1.5-6 2.3-1.6 0.9-4 2.7-5.2 4-1.2 1.2-3.2 4.5-4.5 7.3-1.9 4.2-2.2 6.7-2.3 15.5 0 7.9 0.5 11.6 1.8 15 1 2.5 3.5 6.2 5.5 8.3 2.2 2.1 5.8 4.5 8.7 5.5 3.6 1.2 7.7 1.7 14.5 1.5 5.2-0.1 10.9-0.5 12.5-1 2.3-0.7 3.1-1.6 3.3-3.6 0.1-1.5-0.1-2.7-0.5-2.7-0.4 0-2.4 0.5-4.3 1-1.9 0.6-6.9 1.1-11 1.1-5.1 0-8.9-0.5-11.9-1.8-2.4-1-5.7-3.3-7.2-5.1-1.6-1.7-3.3-4.9-3.9-7-0.5-2-1-4.7-1-6v-2.2h43c0-8.9-0.4-13.1-1-15-0.5-1.9-2.2-5.5-3.7-8-1.9-3-4.4-5.3-7.3-6.7-2.5-1.3-7.2-2.5-10.5-2.7-3.3-0.3-7.3-0.2-9 0.3zm119-0.3c-1.1 0.3-3.6 1-5.5 1.7-1.9 0.6-5 2.5-6.9 4.1-1.8 1.7-4.2 4.8-5.2 6.8-1 2.1-2.3 6.7-2.9 10.3q-1 6.5 0 13.5c0.6 3.9 1.9 8.7 2.9 10.7 1 2.1 3.5 5.3 5.5 7 2.1 2 6 4 9.4 4.9 4 1.2 7.5 1.5 12 1 3.4-0.3 7.9-1.5 10-2.5 2-1.1 4.9-3.2 6.4-4.8 1.5-1.5 3.7-5.1 5-7.8 1.8-4 2.2-6.8 2.3-14.5 0-6.9-0.5-10.9-1.9-14.5-1-2.8-3.2-6.5-5-8.4-1.7-1.8-4.9-4.2-7.1-5.2-2.2-1-6.9-2-10.5-2.3-3.6-0.3-7.4-0.3-8.5 0zm217.4 0.7c-2.5 0.6-6.4 2.6-8.5 4.3-2.1 1.7-5 5.3-6.4 8-2 3.9-2.6 6.6-2.8 14.4-0.3 6.7 0.1 11.2 1.2 15.2 1.2 4.2 2.8 7 5.9 10.2 3.2 3.4 5.6 4.8 10.2 6.1 4.4 1.3 7.7 1.6 12.3 1.1 3.4-0.3 7.9-1.4 10-2.5 2-1 5.4-3.8 7.5-6.2 2-2.4 4.3-6.4 5-8.9 0.6-2.5 1.2-8.8 1.2-14-0.1-7.4-0.5-10.5-2.1-14-1.2-2.5-3.4-5.8-5-7.4-1.6-1.6-4.7-3.7-6.9-4.7-2.2-1-6.9-2.1-10.5-2.4-3.7-0.3-8.4 0-11.1 0.8zm53.1 29.2v29.5h6v-43.5c4.3-4.1 7.1-6.1 9-7 1.9-1 6.6-2.1 10.3-2.4 6.7-0.6 6.7-0.6 6.7-3.6v-3c-11.2 0.9-16.1 2-18 3-1.9 0.9-4.5 2.7-5.7 3.9l-2.2 2.1c-1-8-1.4-8.5-3.6-8.5h-2.5zm140 21.7c-0.8 0.7-1.3 2.5-1.2 4 0.1 1.5 0.9 3 1.7 3.3 0.8 0.3 2.6 0.5 3.8 0.5 1.3 0 2.9-0.6 3.5-1.3 0.7-0.6 1.3-1.9 1.3-2.7 0-0.8-0.8-2.3-1.8-3.2-1-1-2.7-1.8-3.8-1.8-1.2 0-2.7 0.5-3.5 1.2zm-450.7 43.9c-2 0.8-2.1 1.1-0.8 2.4 1.2 1.2 1.5 4.1 1.5 13 0 9.2-0.3 11.8-1.6 13-1.4 1.3-1.1 1.5 2.5 1.5 3.7 0 3.9-0.2 2.6-1.5-0.8-0.8-1.5-3.2-1.5-5.2 0-2.1 0.4-4.8 0.8-6.1 0.4-1.4 1.8-2.6 3.2-2.9 1.9-0.4 3 0 4.3 1.8 1.1 1.5 1.8 4.1 1.8 6.7-0.1 2.5-0.7 4.8-1.7 5.7-1.4 1.3-1.1 1.5 2.5 1.5 3.7 0 3.9-0.2 2.6-1.5-1-1-1.5-3.5-1.4-7.7 0-4.5-0.4-6.7-1.5-7.5-0.9-0.7-2.8-1.1-4.3-0.8-1.5 0.3-3.5 0.7-4.3 0.8-1.2 0.2-1.5-1.1-1.4-7 0.1-4-0.2-7.3-0.5-7.2-0.3 0-1.6 0.4-2.8 1zm92.2 0.2c-1.4 1-1.6 1.6-0.7 2 0.9 0.5 1.2 4.4 1.2 14v13.2c11.3 0.5 12.3 0.2 14.5-2 1.9-1.9 2.5-3.6 2.5-6.7 0.1-3.1-0.6-4.9-2.2-6.6-1.7-1.7-3.1-2.2-5.3-1.9-1.6 0.2-3.8 0.7-4.7 1.1-1.6 0.5-1.8-0.2-1.8-6.9 0-4.1-0.3-7.5-0.8-7.5-0.4 0-1.6 0.6-2.7 1.3zm110.9 0.5c-1.2 0.9-2.7 2.7-3.3 4-0.6 1.2-1.1 3.3-1.1 4.7 0 1.4-0.8 2.9-1.7 3.4-1.7 0.8-1.7 0.8 0 1.5 1.4 0.5 1.7 1.8 1.7 6.6 0 4.2-0.5 6.5-1.6 7.5-1.4 1.3-1.1 1.5 2.8 1.5 3.5 0.1 4.1-0.2 3.1-1.2-0.8-0.8-1.2-3.6-1-7.8 0.2-6.3 0.3-6.5 3.2-7.1l3-0.6c-5.7-0.8-6-1.2-6.2-4.5-0.2-2.1 0.2-4.7 0.7-5.8 0.6-1.2 2-2 3.5-2 1.4 0 2.7 0.4 3 1 0.3 0.6 1.2 1 2 1 0.8 0 1.5-0.7 1.5-1.5 0-0.8-0.7-1.7-1.5-2-0.8-0.3-2.5-0.5-3.7-0.5-1.3 0-3.2 0.8-4.4 1.8zm31.6-0.6c-2 0.7-2.2 1.1-1.2 2.1 0.9 0.8 1.2 4.9 1.2 13.5 0 10.6-0.2 12.3-1.7 13.2-1.4 0.7-0.6 1 3.2 1 4.3 0 4.8-0.1 3.3-1.2-1.5-1.1-1.8-3.4-2-15.4l-0.3-14.1zm32 0.2c-2.2 1.2-2.3 1.4-0.7 2 1.3 0.5 1.7 1.8 1.7 5.4v4.7c-7.3-0.4-8.5 0-11 2.5-2.1 2.1-3 4-3 6.3 0 1.8 0.9 4.5 2 6 1.6 2.2 2.8 2.7 6 2.7 2.2 0 4.2-0.4 4.5-1 0.3-0.6-0.5-0.8-2-0.5-1.8 0.4-3.2-0.2-5.1-2.2-2.3-2.4-2.6-3.4-2.1-6.8 0.3-2.2 1.4-4.6 2.4-5.3 1-0.7 2.4-1.2 3.1-1.2 0.7 0 2.1 0.9 3.2 2 1.5 1.5 2 3.2 1.9 7.3-0.1 2.9-0.1 6 0 7 0.1 1.5 0.5 1.6 3.4 0.5 2.2-0.8 2.7-1.3 1.5-1.5-1.6-0.3-1.8-1.8-1.8-14.8 0-8-0.3-14.5-0.7-14.5-0.4 0.1-1.9 0.7-3.3 1.4zm-310.1 1.4c0.1 0.4 0.9 1.2 1.9 1.8 0.9 0.6 3.9 6.4 6.5 13 2.7 6.5 5.2 12.4 5.7 12.9 0.5 0.6 1.9-2 3.4-6.2 1.4-4 2.7-7.3 2.9-7.3 0.1 0 1.5 3.1 3 7 1.5 3.9 3.2 6.8 3.7 6.5 0.6-0.3 2.8-6 5-12.7 2.8-8.7 4.6-12.8 6.2-14 2.3-1.6 2.2-1.6-2.4-1.5-4.1 0.2-4.5 0.4-3.3 1.7 1.2 1.3 0.9 3-1.7 11l-3.1 9.5c-3.5-7.7-4.6-10.8-4.6-11.7-0.1-1 0.6-3.4 1.4-5.3 0.8-1.9 2.2-3.5 3-3.5 0.8 0 1.5-0.4 1.5-1 0-0.5-1.3-1-3-1-2.5 0-2.9 0.3-2.5 2 0.3 1.1 0 3-0.7 4.3-1.1 2.2-1.1 2.2-2.4-0.8-0.7-1.8-0.9-3.5-0.3-4.2 0.7-1-0.2-1.3-3.7-1.2-2.5 0-4.5 0.3-4.5 0.5 0.1 0.2 1.2 1.4 2.6 2.7 1.3 1.2 3 3.8 3.8 5.7 1.3 3.1 1.3 4-0.2 8-0.9 2.5-2.1 4.4-2.6 4.2-0.5-0.2-2.4-3.8-4.2-8-2.1-5-3.1-8.7-2.8-10.4 0.5-2.7 0.4-2.8-4.1-2.7-2.5 0-4.5 0.4-4.5 0.7zm230.6 1.9c-0.4 0.3-0.7 1.2-0.7 2 0.1 0.7 1.1 1.3 2.2 1.3 1.3 0 1.9-0.6 1.8-1.7-0.2-0.9-0.8-1.8-1.4-2-0.5-0.2-1.4 0-1.9 0.4zm-146.8 8.3c-1 1.2-1.3 2.2-0.7 2.5 0.6 0.3 1 3.2 1 6.5 0 3.3 0.2 6.7 0.5 7.5 0.3 1 1.8 1.5 4 1.5 1.9 0 3.7-0.4 4-1 0.3-0.5-0.7-1.1-2.2-1.2-2.7-0.3-2.8-0.4-2.8-6.8 0-6.4 0.1-6.5 3-7.1l3-0.6c-4.2-0.2-5.7-1-6-1.8-0.3-0.8-0.9-1.5-1.3-1.5-0.5 0-1.6 0.9-2.5 2zm133 0c-1 1.2-1.3 2.2-0.7 2.5 0.6 0.3 1 3.2 1 6.5 0 3.3 0.2 6.7 0.5 7.5 0.3 1 1.8 1.5 4 1.5 1.9 0 3.7-0.4 4-1 0.3-0.5-0.7-1.1-2.2-1.2-2.7-0.3-2.8-0.4-2.8-6.8 0-6.4 0.1-6.5 3-7.1l3-0.6c-4.2-0.2-5.7-1-6-1.8-0.3-0.8-0.9-1.5-1.3-1.5-0.5 0-1.6 0.9-2.5 2zm14.3 0.2c-1.3 0.6-2.3 1.5-2.2 2 0.1 0.4 0.7 1 1.2 1.3 0.6 0.3 1 3.2 1 6.5 0 4.7-0.4 6.2-1.7 7-1.4 0.7-0.7 1 2.7 1 2.5 0 4-0.3 3.3-0.8-0.7-0.4-1.3-4-1.5-9.4l-0.4-8.6zm-163 1.1c-1.3 0.8-2.8 2.1-3.2 3-0.4 0.9-0.3 1.6 0.2 1.6 0.6 0 1.8-0.9 2.8-2.1 1.1-1.4 2.3-1.9 3.5-1.5 1.1 0.4 1.7 1.7 1.8 3.4 0 2.3-0.8 3.1-4.5 5-3.6 1.8-4.5 2.7-4.3 4.5 0.2 2.1 0.8 2.3 7.5 2.5 4.1 0.1 7.5-0.2 7.7-0.8 0.3-0.5-0.3-0.9-1.2-0.7-1.5 0.2-1.8-0.8-2.1-6.8-0.2-3.8-0.8-7.5-1.5-8.3-0.6-0.7-1.8-1.2-2.7-1.2-0.8 0.1-2.6 0.7-4 1.4zm42 0c-1.3 0.8-2.8 2.1-3.2 3-0.4 0.9-0.3 1.6 0.2 1.6 0.6 0 1.8-0.9 2.8-2.1 1.1-1.4 2.3-1.9 3.5-1.5 1.1 0.4 1.7 1.7 1.8 3.4 0 2.3-0.8 3.1-4.5 5-3.6 1.8-4.5 2.7-4.3 4.5 0.2 2.1 0.8 2.3 7.5 2.5 4.1 0.1 7.5-0.2 7.7-0.8 0.3-0.5-0.3-0.9-1.2-0.7-1.5 0.2-1.8-0.8-2.1-6.8-0.2-3.8-0.8-7.5-1.5-8.3-0.6-0.7-1.8-1.2-2.7-1.2-0.8 0.1-2.6 0.7-4 1.4zm49.5 1.1c-1.7 1.8-2.4 3.6-2.4 6.7-0.1 2.4 0.6 5.3 1.4 6.6 1.2 1.7 2.5 2.2 5.5 2.2 2.1 0 4.6-0.6 5.5-1.5 0.8-0.8 1.5-1.7 1.5-2 0-0.2-0.9 0-2 0.5-1.1 0.6-2.6 1-3.5 1-0.8 0-2.6-1.1-4-2.5-1.3-1.3-2.5-3.4-2.5-4.5 0-1.7 0.7-2 4.5-2 2.5 0 5.2-0.2 6-0.5 0.9-0.2 1.5-1.3 1.6-2.2 0-1-0.6-2.3-1.3-3-0.7-0.7-2.7-1.3-4.6-1.3-2.1 0-4.1 0.9-5.7 2.5zm17.7-0.5c-1.9 1.1-3.4 2.5-3.3 3 0.1 0.6 0.6 1 1.1 1 0.6 0 1.5-0.9 2-2 0.6-1.1 1.9-2 3-2 1.1 0 2.3 0.7 2.5 1.5 0.3 0.9 0.5 2.3 0.6 3.3 0 1.1-1.6 2.5-4.3 3.7-3.3 1.6-4.3 2.6-4.3 4.5 0 2.4 0.3 2.5 7.3 2.8 4.3 0.1 7.2-0.2 7.2-0.8 0-0.5-0.5-0.9-1.2-0.7-0.9 0.2-1.4-1.8-1.6-6.8-0.2-3.8-0.8-7.5-1.5-8.3-0.6-0.7-1.8-1.2-2.7-1.2-0.8 0-3 0.9-4.8 2zm14.8-1.1c-1.3 0.8-1.3 1 0 1.4 1.1 0.3 1.7 2.4 2 7.8l0.5 7.4c5.8 0.4 8.4 0.1 9.5-0.5 1.6-0.7 2-0.6 2 0.5 0 1.3 0.5 1.4 3.3 0.3 2.2-0.8 2.7-1.3 1.5-1.5-1.5-0.2-1.8-1.4-1.8-8.3 0-6.9-0.2-8-1.7-7.9-1 0-2.7 0.4-3.8 0.8-1.9 0.8-1.9 0.8 0.3 1.5 1.9 0.5 2.2 1.3 2.3 5.9 0 2.9-0.6 5.8-1.2 6.5-0.7 0.7-2.5 1.2-4.1 1.2-2.1 0-3-0.6-3.9-2.7-0.6-1.5-0.9-5.1-0.7-8 0.3-4.2 0-5.3-1.2-5.2-0.8 0-2.1 0.4-3 0.8zm61 0c-1.3 0.8-1.2 1 0.3 1.5 1.4 0.5 1.7 1.8 1.7 6.6 0 3.3 0.3 6.7 0.5 7.5 0.4 1 1.8 1.5 4 1.5 2 0 4.4-0.4 5.5-1 1.6-0.7 2-0.6 2 0.5 0 1.3 0.6 1.4 3.8 0.3 3.5-1.1 3.6-1.2 1.5-2-2.1-0.7-2.3-1.4-2.3-8.3 0-6.4-0.2-7.5-1.7-7.4-1 0-2.4 0.4-3.3 0.8-1.3 0.8-1.2 1 0.3 1.5 1.3 0.5 1.7 1.8 1.8 5.9 0 3-0.5 5.8-1.3 6.5-0.7 0.7-2.6 1.2-4.3 1l-3-0.3c-0.4-14.3-0.7-15.5-2.2-15.4-1 0-2.4 0.4-3.3 0.8zm69.1 2.1c-1.6 1.7-2.5 3.1-1.8 3.1 0.7 0 1.9-1 2.7-2.2 1.1-1.5 2.1-2 3.3-1.5 1.1 0.4 1.7 1.7 1.8 3.4 0 2.2-0.8 3.1-4.1 4.7-2.2 1.1-4.2 2.6-4.5 3.3-0.3 0.7-0.2 1.9 0 2.7 0.4 1.2 2.1 1.5 7.6 1.3 3.9-0.2 7.3-0.6 7.5-1 0.3-0.4-0.4-0.7-1.3-0.5-1.5 0.2-1.8-0.9-2.3-7.8-0.4-7.7-0.5-8-3.1-8.3-1.9-0.2-3.6 0.6-5.8 2.8zm15.3-0.7c0.9 1.2 2.7 5.3 4.1 9l2.5 6.7c-3.1 7.2-4.8 9.2-6 9.5-1.1 0.3-2 1-2 1.5 0 0.6 1 0.9 2.3 0.8 1.8-0.2 3.1-2.5 7.7-13.4 3.1-7.2 6.2-13.9 7-14.8 1.4-1.5 1.2-1.7-2.5-1.7-3.6 0-3.8 0.2-2.5 1.7 1.4 1.4 1.4 2.1 0 6.1-0.8 2.5-1.7 4.7-2 4.9-0.2 0.2-1.3-1.6-2.2-4.1-1-2.5-1.5-5.4-1.3-6.5 0.5-1.7 0-2-3-2-3.5 0-3.5 0.1-2.1 2.3zm20.1 12.9c-0.3 0.7-0.2 1.8 0.4 2.3 0.6 0.6 1.8 0.7 2.6 0.3 0.8-0.4 1.4-1.3 1.2-2-0.2-0.7-1-1.4-1.9-1.6-0.8-0.1-1.9 0.3-2.3 1z"/>
		<path id="Path 2" class="s0" d="m760.8 414.3c-0.9 0.7-2 3.1-2.4 5.2-0.6 3.5-0.4 4.3 1.9 6.7 1.5 1.6 3.3 2.8 4.1 2.8 0.8 0 2.2-0.7 3-1.5 1-0.9 1.6-3.2 1.6-6 0-3.2-0.6-5.1-2-6.5-1.1-1.1-2.6-2-3.3-2-0.7 0-2 0.6-2.9 1.3zm-338.3-103.9c-2.2 0.8-5.2 3-6.7 4.8-1.5 1.8-3.2 5.2-3.8 7.5-0.5 2.4-1 5.4-1 6.8v2.5h37.5c-1.3-8.1-2.6-12.3-3.8-14.4-1.2-2.2-3.5-4.8-5.2-5.8-1.6-1-5.2-2-8-2.3-3.2-0.3-6.5 0-9 0.9zm117.6 0.3c-1.4 0.3-4.2 2.1-6.2 4.1-2.4 2.5-4.2 5.6-5.3 9.2-0.9 3-1.6 7.7-1.6 10.5 0 2.7 0.7 7.4 1.5 10.2 0.8 2.9 2.7 6.7 4.3 8.5 1.5 1.7 4.2 3.7 6 4.5 1.7 0.7 5.7 1.3 8.7 1.3 3 0 7-0.6 8.8-1.3 1.7-0.8 4.6-2.9 6.3-4.8 1.9-2.1 3.5-5.4 4.2-8.7 0.7-2.8 1.2-7.2 1.2-9.7 0-2.5-0.5-6.9-1.2-9.8-0.8-3.6-2.2-6.4-4.7-9-2-2.1-5.2-4.2-7.1-4.8-1.9-0.5-5.5-0.8-8-0.8-2.5 0.1-5.6 0.4-6.9 0.6zm217.9 1.5c-2.5 1.3-5.5 3.9-6.8 5.8-1.2 1.9-2.7 6-3.3 9-0.6 3.1-0.8 8.1-0.4 11.5 0.3 3.3 1.4 7.8 2.4 10 0.9 2.2 3.5 5.4 5.6 7 3.3 2.6 4.9 3 10.9 3.3 6 0.3 7.8 0 11.6-2.1 3.3-1.7 5.2-3.7 7-7.3 2.2-4.2 2.5-6.1 2.5-14.9 0-8.3-0.4-10.7-2.2-14.5-1.3-2.6-3.9-5.5-6-7-2.8-1.8-5.5-2.5-10.3-2.8-5.3-0.3-7.3 0.1-11 2zm142-0.6c-2.5 0.7-6 2.9-7.7 4.6-2 2-3.9 5.5-4.9 8.8-1.2 3.8-1.5 7.7-1.2 12.5 0.3 4.3 1.3 8.7 2.6 11.5 1.2 2.5 3.6 5.5 5.4 6.8 2.1 1.4 5.5 2.5 9.3 2.9 4.6 0.5 7.1 0.2 11-1.2 2.8-1.1 6.2-3 7.8-4.2l2.7-2.3v-39.5c-5-1.2-9.6-1.5-13.5-1.4-3.8 0-9 0.7-11.5 1.5zm-280.4 102.5c-1.1 0.5-1.9 1.4-1.8 1.9 0.1 0.6 2 1 4.2 1 2.9 0 4-0.4 4-1.5 0-0.8-0.7-1.7-1.5-2-0.8-0.3-1.8-0.5-2.2-0.5-0.5 0-1.7 0.5-2.7 1.1zm-21.6 0.6c-1 0.3-1.3 2-1.2 6.4 0.2 4.8 0.6 6.1 2.2 6.9 1.1 0.6 2.8 1 3.8 1 0.9 0.1 2.5-0.7 3.4-1.7 1-1 1.8-3.4 1.8-5.3 0-1.9-0.7-4.5-1.5-5.8-1-1.4-2.5-2.2-4.2-2.1-1.6 0-3.5 0.3-4.3 0.6zm-71.5 10c-1.5 1.6-1.5 2-0.1 3.3 1.3 1.3 1.7 1.3 3.1 0 0.9-0.8 1.6-2.3 1.5-3.3 0-0.9-0.6-1.7-1.4-1.7-0.8 0-2.2 0.8-3.1 1.7zm42.1-0.2c-1.2 1.1-1.3 1.9-0.6 3 0.8 1.1 1.5 1.2 3 0.5 1.1-0.6 2-1.9 2-3 0-1.1-0.6-2-1.4-2-0.8 0-2.2 0.7-3 1.5zm67.9-0.1c-1.8 1.3-1.8 1.7-0.5 3.1 1.4 1.5 1.7 1.5 3.3 0.1 0.9-0.9 1.7-2.3 1.7-3.1 0-0.8-0.6-1.5-1.3-1.5-0.7 0-2.1 0.6-3.2 1.4zm145.5-0.2c-0.8 0.7-1.3 1.8-1.2 2.5 0.1 0.7 0.7 1.5 1.2 1.8 0.5 0.3 1.7-0.1 2.5-0.8 0.9-0.6 1.6-2 1.5-3 0-0.9-0.6-1.7-1.3-1.7-0.7 0-1.9 0.5-2.7 1.2z"/>
	</g>
	<path id="What a beautiful day." class="s2" aria-label="What a beautiful day."  d="m472.2 430.7c0.3 0 0.7-0.4 1-1.4 1.7-4.8 3.4-9.1 5-12.9 0-0.2 0.1-0.5 0.3-0.5 0 0 0.1 0 0.2 0.2 0.3 0.7 1 2.7 2.2 5.8 1.2 3.1 2.3 5.7 3.2 7.8 0.2 0.6 0.5 0.8 0.7 0.8 0.3 0 0.7-1 1.4-3.1l7.1-20.9c0.9-2.2 2.1-3.5 3.6-3.9 1-0.2 1.5-0.5 1.5-0.8 0-0.4-0.5-0.5-1.3-0.5l-4 0.1h-3.1c-0.9 0-1.3 0.1-1.3 0.4 0 0.3 0.5 0.7 1.4 0.9 0.9 0.2 1.4 0.9 1.4 1.9 0 0.5-0.1 1.1-0.3 1.6-2.4 8.4-4.3 14.1-5.4 17-0.1 0.3-0.2 0.5-0.3 0.5 0 0-0.1-0.1-0.1-0.2l-4.6-11.7c0 0 0-0.2 0-0.5 0-0.5 1.5-4.6 2.5-6.3 1-1.7 1.4-2 3.2-2.4 0.9-0.2 1.4-0.5 1.4-0.8 0-0.4-0.5-0.5-1.3-0.5l-2.6 0.1-2.3-0.1c-0.8 0-1.3 0.2-1.3 0.5 0 0.2 0.3 0.5 0.9 0.8 0.5 0.3 0.8 0.7 0.8 1.1 0 0.2-0.8 2.8-1.5 4.6-0.4 0.8-0.6 1.2-0.7 1.2-0.1 0-0.4-0.4-0.8-1.4-0.5-0.9-0.9-1.9-1.2-2.9l-0.5-1.6c0-0.3 0.3-0.7 0.9-1 0.6-0.3 0.9-0.6 0.9-0.8 0-0.3-0.4-0.5-1.3-0.5l-3.4 0.1-4.1-0.1c-0.8 0-1.3 0.1-1.3 0.5 0 0.3 0.5 0.6 1.4 0.9 1.8 0.5 3.6 1.9 4.3 3.6l2.5 6.3c0.2 0.6 0.3 1 0.3 1.3 0 0.2-0.1 0.5-0.2 1l-3.5 8.5c-0.1 0.2-0.2 0.4-0.3 0.4-0.1 0-0.2-0.2-0.3-0.5-2.6-5.8-5-11.5-7.3-17.3-0.2-0.7-0.3-1.3-0.3-1.9 0-0.8 0.3-1.3 0.9-1.4 0.9-0.3 1.4-0.6 1.4-0.9 0-0.3-0.4-0.5-1.2-0.5l-4.1 0.1-4-0.1c-0.8 0-1.2 0.1-1.2 0.5 0 0.3 0.5 0.6 1.4 0.9 1.4 0.4 2.5 1.4 3.2 2.9l9.5 23.9c0.3 0.8 0.5 1.2 0.6 1.2zm27.3-0.6l3.6-0.2 3.3 0.2c0.6 0 0.9-0.1 0.9-0.4 0-0.3-0.4-0.5-1-0.8-1.1-0.3-1.7-0.9-1.7-1.8v-8.9c0-1.8 0.3-2.4 1.2-3.2 0.8-0.6 2-0.9 3.6-0.9 2 0 4.1 1.8 4.1 3.9v9c0 0.9-0.5 1.6-1.7 1.9-0.7 0.3-1 0.5-1 0.8 0 0.3 0.3 0.4 0.9 0.4l3.4-0.2 3.4 0.2c0.6 0 0.9-0.1 0.9-0.4 0-0.3-0.3-0.5-1-0.8-1.2-0.3-1.8-1-1.8-1.9v-9.2c0-3.4-2.2-6-5-6-2 0-4.1 0.9-6.7 2.8-0.2-0.4-0.3-0.9-0.3-1.7v-7.6c0-2.3 0.1-4.1 0.3-5.4 0-0.1 0-0.3 0-0.4 0-0.4-0.1-0.5-0.2-0.5h-0.1c-2.7 1-4.4 1.6-5.1 1.8-0.2 0-0.3 0.2-0.3 0.5 0 0.3 0.1 0.5 0.3 0.6 1.4 0.2 2 1.3 2 3.2v22c0 1.4-1 1.6-2.1 1.9-0.5 0.2-0.8 0.4-0.8 0.7 0 0.3 0.3 0.4 0.9 0.4zm26.4 0.5c1.9 0 3.6-1 4.5-1.7 0.4-0.4 0.6-0.6 0.8-0.6 0 0 0.1 0.2 0.4 0.6 0.4 0.7 1.4 1.7 2.8 1.7 1.4 0 3.2-1.4 3.5-2.2 0-0.3-0.2-0.5-0.4-0.5-0.1 0-0.2 0-0.3 0.1-0.4 0.4-1 0.6-1.7 0.6-1.1 0-1.6-1.1-1.6-3.1v-0.3l0.2-9.5c0.1-2.2-1.5-3.9-3.6-3.9-1 0-2.2 0.3-3.4 1-2.5 1.3-4.9 3.2-4.9 5.1 0 0.3 0.1 0.4 0.4 0.4 0.6 0 3-1 3-1.5l-0.1-0.6c0-0.4 0.1-0.7 0.3-0.9 0.3-0.6 1.5-1.4 2.8-1.4 1.2 0 2.4 1.3 2.4 2.9l-0.1 2.8c0 1.2-0.1 1.2-1.2 1.7l-4.5 1.9c-2.2 0.9-3.2 2.2-3.2 3.9 0 1.8 1.9 3.5 3.9 3.5zm2-2c-1.4 0-2.4-0.9-2.4-2.4 0-1.3 1.4-2.5 4.4-3.5 0.2-0.1 0.4-0.1 0.6-0.1 0.3 0 0.4 0.2 0.4 0.7v0.2l-0.1 2.1c0 1.8-1.5 3-2.9 3zm18.4 2c1.6 0 3.5-0.9 4.4-1.8 0.5-0.4 0.8-0.7 0.8-0.9 0-0.3-0.2-0.6-0.4-0.6 0 0 0 0-0.1 0.1-0.7 0.5-1.8 0.8-3.3 0.8-1.6 0-2.9-1.1-2.9-4.1v-8.4c0-1.1 0.2-1.2 1.8-1.2h4.3c0.3 0 0.5-0.3 0.5-1 0-0.7-0.2-1.1-0.5-1.1h-5c-0.7 0-1-0.2-1-0.6v-2c0-0.3-0.2-0.4-0.6-0.4-0.1 0-0.3 0.3-0.8 0.8-0.9 1.1-2.4 2.7-3.8 3.1-0.1 0.1-0.2 0.2-0.2 0.3 0 0.3 0.4 0.9 0.6 0.9 0.6 0 1.1 0.1 1.3 0.1 0.2 0.1 0.3 0.3 0.3 0.6v10.2c0 3.5 1.7 5.2 4.6 5.2zm21.5 0c2 0 3.7-1 4.5-1.7 0.4-0.4 0.7-0.6 0.8-0.6 0 0 0.2 0.2 0.4 0.6 0.4 0.7 1.4 1.7 2.9 1.7 1.4 0 3.1-1.4 3.5-2.2 0-0.3-0.3-0.5-0.5-0.5-0.1 0-0.2 0-0.2 0.1-0.5 0.4-1 0.6-1.8 0.6-1 0-1.6-1.1-1.6-3.1v-0.3l0.2-9.5c0.1-2.2-1.5-3.9-3.6-3.9-1 0-2.2 0.3-3.4 1-2.5 1.3-4.9 3.2-4.9 5.1 0 0.3 0.2 0.4 0.5 0.4 0.5 0 2.9-1 2.9-1.5v-0.6c0-0.4 0.1-0.7 0.2-0.9 0.3-0.6 1.6-1.4 2.8-1.4 1.3 0 2.4 1.3 2.4 2.9l-0.1 2.8c0 1.2-0.1 1.2-1.2 1.7l-4.5 1.9c-2.1 0.9-3.2 2.2-3.2 3.9 0 1.8 1.9 3.5 3.9 3.5zm2-2c-1.3 0-2.4-0.9-2.4-2.4 0-1.3 1.5-2.5 4.4-3.5 0.2-0.1 0.4-0.1 0.6-0.1 0.3 0 0.4 0.2 0.4 0.7v0.2l-0.1 2.1c0 1.8-1.5 3-2.9 3zm32.1 2c6.3 0 9.7-4.6 9.7-9.8 0-5.3-3.4-9-7.9-9-1.7 0-4.4 0.9-6.4 2.6-0.3-0.1-0.4-0.5-0.4-1.5v-9l0.1-4.6c0-0.2-0.1-0.3-0.3-0.3h-0.1l-1.9 0.8c-1 0.4-2 0.8-3 1-0.3 0-0.3 0.2-0.3 0.5 0 0.3 0.1 0.5 0.3 0.6 1.4 0.3 2.1 1.3 2.1 3.2v20.3c0 0.9-0.1 1.8-0.1 2.5l-0.1 0.8c-0.1 0.3-0.1 0.5-0.1 0.7v0.2c0 0.3 0.4 0.5 0.6 0.5 0.1 0 0.3-0.1 0.6-0.4 0.3-0.2 0.5-0.4 0.6-0.4 0.2 0 1 0.3 2.6 0.7 1.6 0.4 2.9 0.6 4 0.6zm1-1.3c-3.2 0-6-2.1-6-5.1v-5.3c0-1.9 0.3-3.1 0.9-3.8 0.9-1 2.9-1.5 4.3-1.5 3.9 0 6.2 3.9 6.2 8 0 4.3-2.1 7.7-5.4 7.7zm18.8 1.3c3.8 0 6.5-2.2 6.9-3.7 0.1-0.3 0.2-0.6 0.2-0.7 0-0.3-0.2-0.5-0.3-0.5-0.2 0-0.3 0.1-0.5 0.3-1 1.3-2.5 2-4.3 2-3.7 0-6.5-3.6-6.5-7.7 0-1.4 0.3-1.6 1.1-1.6h7.2c2 0 3.4-0.3 3.4-2.8 0-2.5-2.2-4.1-5.7-4.1-4.9 0-8.7 4.1-8.7 9.5 0 5.4 3.3 9.3 7.2 9.3zm-2.8-13.3c-0.6 0-0.9-0.2-0.9-0.6 0-1.4 2.3-3.6 4.4-3.6 2 0 3.7 1.1 3.7 2.7 0 0.9-0.1 1.3-0.4 1.3-0.8 0.1-1.9 0.2-3.2 0.2zm16.8 13.3c1.9 0 3.6-1 4.5-1.7 0.4-0.4 0.6-0.6 0.8-0.6 0 0 0.1 0.2 0.3 0.6 0.4 0.7 1.5 1.7 2.9 1.7 1.4 0 3.2-1.4 3.5-2.2 0-0.3-0.2-0.5-0.5-0.5 0 0-0.1 0-0.2 0.1-0.4 0.4-1 0.6-1.7 0.6-1.1 0-1.6-1.1-1.6-3.1v-0.3l0.2-9.5c0-2.2-1.5-3.9-3.6-3.9-1.1 0-2.2 0.3-3.4 1-2.5 1.3-4.9 3.2-4.9 5.1 0 0.3 0.1 0.4 0.4 0.4 0.6 0 3-1 3-1.5l-0.1-0.6c0-0.4 0.1-0.7 0.2-0.9 0.3-0.6 1.6-1.4 2.9-1.4 1.2 0 2.4 1.3 2.4 2.9l-0.1 2.8c-0.1 1.2-0.1 1.2-1.2 1.7l-4.5 1.9c-2.2 0.9-3.2 2.2-3.2 3.9 0 1.8 1.9 3.5 3.9 3.5zm2-2c-1.4 0-2.4-0.9-2.4-2.4 0-1.3 1.4-2.5 4.4-3.5 0.2-0.1 0.4-0.1 0.6-0.1 0.3 0 0.4 0.2 0.4 0.7v0.2l-0.1 2.1c0 1.8-1.5 3-2.9 3zm26.2 2.2c0.2 0 0.9-0.2 2-0.7 1.1-0.5 2.5-0.8 4-1 0.4 0 0.6-0.2 0.6-0.7 0-0.4-0.2-0.5-0.5-0.5h-0.1c-0.5 0.1-1.1 0.1-2.1 0.1-0.5 0-0.8-1-0.8-3v-9.3c0-1.7 0.1-2.7 0.3-3 0.1-0.2 0.1-0.3 0.1-0.4 0-0.3-0.2-0.6-0.5-0.6h-0.1c-0.8 0.3-1.3 0.4-1.4 0.4-0.2 0.1-0.4 0.1-0.8 0.2-0.8 0.1-1.9 0.2-3 0.2-0.5 0-0.9 0.1-1.1 0.2-0.3 0.1-0.4 0.3-0.4 0.5 0 0.5 0.3 0.7 1 0.7 1.4 0.1 2.9 0.7 2.9 2.2v8.1c0 2.5-2.3 4.2-5.7 4.2-1.9 0-3.7-1.9-3.7-4v-8.6c0-0.9 0.1-2 0.3-3.4 0-0.4-0.2-0.6-0.6-0.6h-0.1c-1.9 0.5-3.5 0.7-4.5 0.7-0.4 0.1-0.7 0.3-0.7 0.7 0 0.4 0.2 0.6 0.6 0.7 1.3 0.5 1.9 1.4 1.9 2.5v9c0 3.3 2 5.2 5 5.2 2.8 0 5.2-1 7.3-3.1v0.3l-0.2 2.9c0 0.1 0.1 0.1 0.3 0.1zm15.4-0.2c1.6 0 3.5-0.9 4.4-1.8 0.5-0.4 0.7-0.7 0.7-0.9 0-0.3-0.1-0.6-0.3-0.6 0 0-0.1 0-0.1 0.1-0.8 0.5-1.9 0.8-3.3 0.8-1.6 0-2.9-1.1-2.9-4.1v-8.4c0-1.1 0.2-1.2 1.7-1.2h4.4c0.3 0 0.4-0.3 0.4-1 0-0.7-0.1-1.1-0.4-1.1h-5c-0.7 0-1.1-0.2-1.1-0.6l0.1-2c0-0.3-0.2-0.4-0.6-0.4-0.1 0-0.4 0.3-0.8 0.8-0.9 1.1-2.4 2.7-3.8 3.1-0.1 0.1-0.2 0.2-0.2 0.3 0 0.3 0.4 0.9 0.5 0.9 0.7 0 1.2 0.1 1.4 0.1 0.2 0.1 0.3 0.3 0.3 0.6v10.2c0 3.5 1.7 5.2 4.6 5.2zm10.7-23.2c1.2 0 2.2-0.9 2.2-2.2 0-1.3-1-2.2-2.2-2.2-1.3 0-2.2 0.9-2.2 2.2 0 1.3 0.9 2.2 2.2 2.2zm-3.3 22.7l3.6-0.2 3.5 0.2c0.6 0 0.9-0.1 0.9-0.4 0-0.3-0.3-0.5-0.9-0.7-1.2-0.4-2-0.5-2-1.7v-10.2c0-1.3 0.1-3.3 0.4-6 0-0.1-0.1-0.2-0.3-0.2 0 0-0.3 0.1-0.8 0.4-1.5 1.1-3 1.8-4.5 2.1-0.2 0.1-0.3 0.2-0.3 0.5 0 0.3 0.1 0.6 0.4 0.6 1.3 0.3 2 1.4 2 3.2v9.6c0 0.2 0 0.5-0.2 0.8-0.1 0.3-0.6 0.5-1.4 0.8-0.9 0.3-1.3 0.5-1.3 0.8 0 0.3 0.3 0.4 0.9 0.4zm10.8 0l3.6-0.2 3.6 0.2c0.6 0 0.9-0.1 0.9-0.4 0-0.3-0.4-0.5-1-0.8-1.3-0.4-1.9-1-1.9-1.9v-11.7c0-0.3 0.1-0.5 0.3-0.6 0.3-0.1 0.7-0.2 1.4-0.2h4.2c0.3 0 0.6-0.9 0.6-1.6 0-0.3-0.1-0.5-0.2-0.5h-5.2c-0.8 0-1.1-0.3-1.1-1v-2.3c0-5.7 1.8-8.4 4.6-8.4 1.6 0 2.9 0.7 3.5 1.3 0.6 0.7 1.2 1.3 1.9 1.3 0.6 0 1.3-0.8 1.3-1.7 0-1.8-1.6-2.7-4.8-2.7-2.2 0-4.3 1-6.3 2.9-2 1.9-3.4 5.7-3.4 10.5-1.3 0.7-2.1 1-2.6 1.2-0.2 0.1-0.3 0.2-0.3 0.3 0 0.2 0.5 0.7 0.6 0.7 0.6 0.1 1.4 0.1 2.3 0.1v12.4c0 0.9-0.6 1.5-1.9 1.9-0.6 0.3-1 0.5-1 0.8 0 0.3 0.3 0.4 0.9 0.4zm27.6 0.7c0.2 0 0.9-0.2 2.1-0.7 1-0.5 2.4-0.8 3.9-1 0.4 0 0.6-0.2 0.6-0.7 0-0.4-0.2-0.5-0.5-0.5h-0.1c-0.5 0.1-1.1 0.1-2.1 0.1-0.5 0-0.8-1-0.8-3v-9.3c0-1.7 0.1-2.7 0.3-3 0.1-0.2 0.1-0.3 0.1-0.4 0-0.3-0.2-0.6-0.5-0.6h-0.1c-0.8 0.3-1.2 0.4-1.4 0.4-0.2 0.1-0.4 0.1-0.8 0.2-0.8 0.1-1.9 0.2-3 0.2-0.5 0-0.9 0.1-1.1 0.2-0.3 0.1-0.4 0.3-0.4 0.5 0 0.5 0.4 0.7 1 0.7 1.4 0.1 2.9 0.7 2.9 2.2v8.1c0 2.5-2.3 4.2-5.7 4.2-1.9 0-3.7-1.9-3.7-4v-8.6c0-0.9 0.1-2 0.3-3.4 0-0.4-0.2-0.6-0.6-0.6h-0.1c-1.9 0.5-3.5 0.7-4.5 0.7-0.4 0.1-0.6 0.3-0.6 0.7 0 0.4 0.1 0.6 0.5 0.7 1.3 0.5 1.9 1.4 1.9 2.5v9c0 3.3 2 5.2 5 5.2 2.8 0 5.2-1 7.3-3.1v0.3l-0.2 2.9c0 0.1 0.1 0.1 0.3 0.1zm8.8-0.7l3.5-0.2 3.6 0.2c0.6 0 0.9-0.1 0.9-0.4 0-0.3-0.3-0.5-0.9-0.7-1.2-0.4-2-0.5-2-1.7v-22c0-2.4 0.1-4.1 0.2-5.2l0.1-0.8c0-0.2-0.1-0.3-0.3-0.3h-0.1c-2.6 1-4.3 1.6-5.1 1.8-0.2 0-0.3 0.2-0.3 0.5 0 0.3 0.2 0.5 0.4 0.6 1.3 0.3 2 1.3 2 3.2v22.2c0 0.2-0.1 0.5-0.2 0.8-0.1 0.3-0.6 0.5-1.5 0.8-0.8 0.3-1.2 0.5-1.2 0.8 0 0.3 0.3 0.4 0.9 0.4zm35 0.7c0.2 0 0.9-0.2 2-0.7 1.1-0.5 2.4-0.8 4-1 0.4 0 0.6-0.2 0.6-0.7 0-0.4-0.2-0.5-0.5-0.5h-0.2c-0.4 0.1-1.1 0.1-2 0.1-0.6 0-0.9-0.9-0.9-2.8v-19.9c0-1.8 0.1-3.5 0.3-5.2 0-0.5 0-0.8 0-0.9 0-0.1-0.1-0.2-0.3-0.2-0.1 0-0.8 0.2-1.9 0.7-1.2 0.5-2.3 0.8-3.5 1.1-0.2 0-0.3 0.2-0.3 0.5 0 0.3 0.2 0.5 0.4 0.6 1.6 0.3 2.2 1 2.2 3.2v6.9c0 0.8 0 1.1-0.1 1.1-0.1 0-0.3-0.1-0.5-0.3-0.3-0.5-2.2-1-3.4-1-6 0-9.9 4.6-9.9 9.6 0 5 3.3 9.2 8.1 9.2 2.7 0 4.7-1.5 5.8-3.1v0.3l-0.2 2.9c0 0.1 0.1 0.1 0.3 0.1zm-4.3-2.2c-1.2 0-2.6-0.4-3.9-1.5-1.5-1-2.6-3.4-2.6-6.3 0-1.5 0.2-2.8 0.6-3.8 0.7-2 2.6-3.7 4.7-3.7 3.2 0 5.4 2.8 5.4 5.5v5.9c0 2.2-1.7 3.9-4.2 3.9zm16.4 2c2 0 3.7-1 4.5-1.7 0.4-0.4 0.7-0.6 0.8-0.6 0.1 0 0.2 0.2 0.4 0.6 0.4 0.7 1.4 1.7 2.9 1.7 1.4 0 3.2-1.4 3.5-2.2 0-0.3-0.3-0.5-0.5-0.5-0.1 0-0.2 0-0.2 0.1-0.4 0.4-1 0.6-1.8 0.6-1 0-1.5-1.1-1.5-3.1v-0.3l0.2-9.5c0-2.2-1.6-3.9-3.6-3.9-1.1 0-2.2 0.3-3.5 1-2.4 1.3-4.8 3.2-4.8 5.1 0 0.3 0.1 0.4 0.4 0.4 0.6 0 2.9-1 2.9-1.5v-0.6c0-0.4 0.1-0.7 0.2-0.9 0.3-0.6 1.6-1.4 2.9-1.4 1.2 0 2.4 1.3 2.4 2.9l-0.1 2.8c-0.1 1.2-0.2 1.2-1.3 1.7l-4.5 1.9c-2.1 0.9-3.2 2.2-3.2 3.9 0 1.8 2 3.5 3.9 3.5zm2.1-2c-1.4 0-2.4-0.9-2.4-2.4 0-1.3 1.4-2.5 4.4-3.5 0.2-0.1 0.3-0.1 0.6-0.1 0.2 0 0.4 0.2 0.4 0.7v0.2l-0.1 2.1c-0.1 1.8-1.6 3-2.9 3zm12.9 13.9c2.7 0 3.3-2.8 4.6-6.1 0.7-1.6 1.3-3 1.7-4.1l0.7-1.7 6-14.3c0.6-1.4 1.7-2.6 2.8-3 0.6-0.2 0.8-0.4 0.8-0.7 0-0.3-0.3-0.4-0.8-0.4l-2.6 0.2-3.2-0.2c-0.5 0-0.8 0.2-0.8 0.5 0 0.3 0.3 0.6 1.1 0.9 0.7 0.3 1 0.8 1 1.5 0 0.8-0.1 1.4-0.3 1.9l-3 7.9c-0.1 0.3-0.2 0.4-0.3 0.4-0.1 0-0.3-0.1-0.3-0.4l-3.5-8.6c-0.2-0.6-0.4-1-0.4-1.3 0-0.7 0.3-1.2 0.9-1.4 0.8-0.2 1.3-0.5 1.3-0.9 0-0.3-0.3-0.5-0.9-0.5l-3.3 0.2-3.3-0.2c-0.5 0-0.8 0.1-0.8 0.4 0 0.3 0.3 0.5 1 0.8 0.8 0.2 1.5 0.9 2 2.1l5.1 12.9c0.1 0.3 0.1 0.7 0.1 1.2 0 0.5 0 0.8-0.1 1.1-1.3 3.5-2.6 6.4-4 8.7-0.2 0.3-0.5 0.5-0.8 0.5l-1.8-0.3c-0.8 0-1.2 0.5-1.2 1.4 0 0.9 1.2 1.5 2.3 1.5zm21.5-11.9c1.3 0 2.4-1 2.4-2.4 0-1.4-1.1-2.4-2.4-2.4-0.7 0-1.3 0.2-1.7 0.7-0.5 0.5-0.7 1-0.7 1.7 0 1.4 1 2.4 2.4 2.4z"/>
	<path id="Hello World!" class="s2" aria-label="Hello World!"  d="m327.8 364h-6.9v-80.7h6.9v36.2h51.6v-36.2h6.9v80.7h-6.9v-38.3h-51.6zm126.8-29.4v2.2h-43.9q0.4 11.8 6.4 17.2 6 5.4 17.6 5.4 7.4 0 16.9-2.8v5.6q-9.4 2.8-17.6 2.8-14.8 0-22.4-7.5-7.7-7.5-7.7-23 0-9.9 3-16.7 3.1-6.8 8.9-10.3 5.8-3.4 13.9-3.4 12 0 18.4 7.8 6.5 7.8 6.5 22.7zm-25-25.3q-18.3 0-18.9 22.6h37.4q-0.3-11.5-5-17.1-4.6-5.5-13.5-5.5zm47.3 54.7h-6.8v-88.1h6.8zm26.8 0h-6.7v-88.1h6.7zm43.8 1.1q-12.7 0-20-7.6-7.3-7.6-7.3-22.9 0-10.2 3.4-17 3.3-6.8 9.4-10.1 6.2-3.4 14.5-3.4 13 0 20.2 7.6 7.2 7.4 7.2 22.9 0 10.1-3.4 17-3.4 6.8-9.6 10.2-6.1 3.3-14.4 3.3zm0-5.8q20.5 0 20.5-24.7 0-12.9-5.4-18.8-5.2-5.9-15.1-5.9-20.3 0-20.3 24.5 0 24.9 20.3 24.9zm156.5-1.3l24-74.6h6.8l-26.2 80.6h-8.9l-24.5-73.6-24.4 73.6h-9l-26.2-80.6h7.1l23.9 74.5 24.5-74.5h8.4zm63.8 7q-12.8 0-20.1-7.6-7.3-7.5-7.3-22.9 0-10.2 3.4-17 3.3-6.8 9.5-10.1 6.1-3.3 14.5-3.3 12.9 0 20.1 7.5 7.2 7.5 7.2 22.9 0 10.1-3.4 17-3.4 6.8-9.6 10.2-6.1 3.3-14.3 3.3zm0-5.8q20.4 0 20.4-24.7 0-12.9-5.4-18.8-5.2-5.8-15-5.8-20.4 0-20.4 24.5 0 24.8 20.4 24.8zm43.9 4.8v-59h5.6l0.6 7.9h0.5q3.6-3.9 9-6.1 5.5-2.3 11.1-2.3 3.4 0 6.1 0.5v6.3q-2.6-0.5-6.3-0.5-5.2 0-10.8 2.2-5.5 2.2-9.1 6.6v44.4zm50.9 0h-6.8v-88.1h6.8zm42.7 1q-7.8 0-13.7-3.1-5.9-3.2-9.2-9.7-3.3-6.6-3.3-16.5 0-15.7 8.2-23.7 8.1-7.9 24.1-7.9 6.4 0 13.3 1.3v-29.5h6.8v88.1h-5.8l-0.4-7h-0.6q-3.5 3.8-8.5 5.9-5 2.1-10.9 2.1zm1.2-5.9q5.4 0 10-2.1 4.8-2.1 8.2-6.6v-39q-2.8-0.7-6.3-1.2-3.5-0.4-7-0.4-12.8 0-19.1 6.2-6.3 6.1-6.3 19.1 0 24 20.5 24zm51.6-14h-4.4l-1.4-30.4v-31.4h7.2v31.4zm-2.2 19.5q-2.3 0-3.8-1.3-1.4-1.3-1.4-3.4 0-2.2 1.4-3.5 1.4-1.3 3.8-1.3 2.3 0 3.7 1.3 1.4 1.3 1.4 3.5 0 2.2-1.4 3.4-1.4 1.3-3.7 1.3z"/>
</svg>